<svg width="24" height="24" viewBox="0 0 24 24" fill="none" xmlns="http://www.w3.org/2000/svg">
<path d="M20.5708 19.6329C20.6282 19.5412 20.6826 19.4469 20.749 19.3606C20.8155 19.2717 20.7883 19.2258 20.6795 19.2043L20.6705 19.2151C20.888 19.0857 21.1115 18.9617 21.326 18.8269C21.4227 18.7649 21.5164 18.6948 21.5949 18.6139C22.2142 17.9615 22.8849 17.3442 23.3682 16.5948C23.5404 16.3306 23.6371 16.0476 23.6945 15.7511C23.7036 15.7322 23.7126 15.716 23.7217 15.6971C23.7217 15.6971 23.7096 15.6864 23.7005 15.6837V15.7592C23.6462 15.8131 23.5888 15.8697 23.5314 15.9236L23.5374 15.9317C23.5283 15.9128 23.5163 15.8966 23.5072 15.8778C23.4891 15.8966 23.4709 15.9128 23.4528 15.9317V15.9236C23.2504 16.3064 23.0571 16.6946 22.6825 16.983C22.5797 17.0639 22.5284 17.1987 22.4589 17.3119C22.184 17.7621 21.7792 18.1017 21.326 18.409C21.0602 18.5896 20.8578 18.8457 20.5829 19.0129C20.024 19.3552 19.6796 19.8944 19.1116 20.2259C18.9153 20.3419 18.7733 20.5279 18.6041 20.6761C18.3624 20.8837 18.1056 21.0805 17.8791 21.2988C17.719 21.4525 17.5951 21.6385 17.438 21.8299C17.5891 21.8865 17.719 21.9323 17.8489 21.9809L17.8428 21.9755C17.7733 22.0429 17.6585 22.0995 17.6404 22.1749C17.5709 22.5038 17.3081 22.6386 16.9909 22.7033C16.8247 22.7383 16.716 22.8031 16.6254 22.9298C16.5498 23.0376 16.432 23.1184 16.3323 23.2128C16.1782 23.3611 16.0121 23.4985 15.8701 23.6549C15.6466 23.9029 15.3384 24.0026 15.0091 23.9999C14.5439 23.9999 14.0756 23.9595 13.6104 23.911C12.4896 23.7951 11.3869 23.5578 10.2541 23.5309C9.67706 23.5174 9.10004 23.4419 8.52303 23.4204C8.03363 23.4015 7.54423 23.415 7.05785 23.4123L7.06691 23.4177C6.89169 23.4069 6.70439 23.3557 6.54428 23.3934C5.60777 23.6091 4.65314 23.5228 3.70756 23.5444C3.2665 23.5552 2.88283 23.3907 2.66834 23.0133C2.64115 22.9648 2.61094 22.9163 2.59886 22.865C2.43874 22.0968 2.30582 21.3258 2.28467 20.5386C2.26957 19.9267 2.18498 19.3175 2.16383 18.7056C2.14571 18.1502 2.13362 17.5949 2.20008 17.0396C2.23936 16.7 2.17289 16.3522 2.20915 16.0126C2.3179 14.9855 2.45384 13.9611 2.58073 12.9367C2.60489 12.7346 2.64719 12.5297 2.64417 12.3275C2.64417 12.2089 2.57166 12.0903 2.52937 11.9717L2.52031 11.9771C2.56864 11.9636 2.65021 11.9636 2.6623 11.9393C2.74084 11.7695 2.73782 11.5997 2.58375 11.4595C2.27863 11.1845 2.12456 10.8314 1.93726 10.4944C1.91007 10.4459 1.87381 10.3974 1.86777 10.3462C1.83152 10.0658 1.73485 9.80702 1.5838 9.55901C1.54453 9.49701 1.54453 9.41344 1.54453 9.33796C1.54151 9.02257 1.61099 8.95517 1.96444 8.91474C2.0007 8.90934 2.03393 8.90125 2.07018 8.89586C2.09435 8.89586 2.11852 8.89587 2.18196 8.90126C2.25144 9.07379 2.35718 9.2544 2.39041 9.44579C2.42968 9.66684 2.57771 9.80702 2.72876 9.98493C2.76501 9.93371 2.80126 9.90945 2.79824 9.89058C2.74386 9.61831 2.71365 9.33527 2.62 9.07378C2.3753 8.39177 2.45989 7.74749 2.90398 7.16522C3.46286 6.43199 4.25738 5.94406 5.17879 5.63945C5.79809 5.43457 6.42646 5.21891 7.06993 5.10569C7.82216 4.9736 8.59856 4.93856 9.36589 4.87925C9.5109 4.86847 9.66195 4.94126 9.80998 4.9736C9.77675 4.96821 9.7405 4.96282 9.70727 4.95743C9.7405 4.96282 9.77373 4.96821 9.80696 4.9736C10.4957 4.89004 11.1725 4.93856 11.8522 5.06796C12.9367 5.27553 13.9487 5.64214 14.9245 6.10311C15.5166 6.38077 16.0272 6.76086 16.4683 7.20835C16.571 7.31349 16.6465 7.43479 16.7341 7.55071C16.8912 7.76636 17.0634 7.97663 17.1993 8.20307C17.4289 8.58856 17.6313 8.98752 17.867 9.42153C17.9032 9.42153 18.009 9.42153 18.1087 9.40536C18.8337 9.27596 19.5618 9.20587 20.2959 9.31909C20.891 9.41075 21.4046 9.66414 21.8759 9.99302C21.9907 10.0712 22.1115 10.1413 22.2233 10.2222C22.4589 10.3974 22.622 10.6184 22.7459 10.8718C23.0661 11.5323 23.3954 12.19 23.7217 12.8478C23.7519 12.9071 23.7881 12.9664 23.7972 13.0284C23.8486 13.4624 24.0268 13.8802 23.9966 14.325C23.9905 14.4194 23.9815 14.5164 23.9724 14.6108C23.9392 14.9504 23.8788 15.2847 23.8848 15.6325C23.8878 15.9047 23.7428 16.1985 23.5978 16.4519C23.1024 17.3146 22.4015 18.0397 21.6281 18.7137C21.2747 19.021 20.9152 19.3256 20.5587 19.6302L20.5708 19.6248V19.6329ZM18.0452 19.8782C18.0664 19.8539 18.0845 19.8297 18.1056 19.8054C18.1238 19.7731 18.1419 19.738 18.16 19.7057C18.1963 19.7003 18.2325 19.6949 18.2688 19.6922C18.2809 19.6625 18.296 19.6302 18.3081 19.6005C18.3383 19.5844 18.3685 19.5682 18.3987 19.552C18.4077 19.5466 18.4198 19.5412 18.4259 19.5358C18.4289 19.5331 18.4228 19.5224 18.4198 19.5143C18.4168 19.5278 18.4108 19.5439 18.4047 19.5574C18.3745 19.5736 18.3443 19.5925 18.3171 19.6086C18.302 19.6356 18.2899 19.6625 18.2748 19.6868C18.2355 19.6949 18.1963 19.703 18.157 19.7138C18.1419 19.7461 18.1298 19.7785 18.1147 19.8108C18.0936 19.8324 18.0754 19.8566 18.0513 19.8782C18.0241 19.9132 17.9969 19.9483 17.9667 19.9833C17.8277 19.9402 17.8186 19.9995 17.8519 20.0939C17.8398 20.0885 17.8247 20.0804 17.8126 20.075C17.8247 20.0858 17.8368 20.0939 17.8458 20.1046C17.8881 20.0642 17.9274 20.0238 17.9697 19.9833C17.9939 19.9483 18.018 19.9105 18.0422 19.8755L18.0452 19.8782ZM2.47801 15.6971L2.49312 15.7025H2.47499L2.48708 15.716L2.47801 15.6971ZM5.85549 11.6482L5.84039 11.6536L5.86153 11.6374C5.86757 11.6563 5.8706 11.6751 5.87664 11.694C5.88872 11.6886 5.9008 11.6805 5.91289 11.6752C5.89476 11.6644 5.87362 11.6563 5.85247 11.6482H5.85549ZM15.571 9.17083C15.571 9.17083 15.565 9.17622 15.5589 9.18162C15.568 9.18162 15.574 9.17892 15.5831 9.17622C15.5861 9.20587 15.5891 9.23553 15.5922 9.26518C15.6012 9.25979 15.6163 9.25439 15.6133 9.2517C15.5982 9.22474 15.5831 9.19779 15.568 9.17083H15.571ZM15.2145 23.078C15.2417 23.078 15.2689 23.0753 15.2961 23.0726C15.2689 23.0726 15.2387 23.0726 15.2115 23.0753V22.9702C15.1874 22.9756 15.1662 22.9837 15.1481 22.989C15.1692 23.0187 15.1934 23.0484 15.2145 23.078ZM8.69523 7.22991C8.54418 7.22183 8.39615 7.21374 8.2451 7.20565C8.15145 7.25148 8.06384 7.26765 7.99134 7.1787C8.01249 7.1733 8.03363 7.16522 8.05478 7.15983C8.03666 7.16792 8.01551 7.17601 7.99738 7.18409C7.8131 7.12748 7.71945 7.28114 7.58048 7.32696L7.5684 7.31079L7.58954 7.31618C7.54423 7.52105 7.36599 7.58575 7.17265 7.63697C7.12733 7.64775 7.08202 7.65853 7.0367 7.66662L7.06691 7.55879C7.04879 7.55879 7.03066 7.55879 7.01253 7.55879C7.0216 7.59384 7.03368 7.62888 7.04274 7.66393C6.97024 7.69089 6.89774 7.71514 6.82826 7.7421C6.61981 7.82836 6.36302 7.86341 6.32374 8.12759H6.32677C6.21197 8.00359 6.10321 7.98202 6.0005 8.14377L6.00654 8.13568C5.63798 8.24351 5.34796 8.42142 5.26942 8.815C5.66517 9.15735 6.17572 9.14387 6.68023 9.17352C6.69231 8.60473 6.91284 8.1842 7.41131 7.85532C7.70434 7.66123 8.0427 7.61001 8.35084 7.47523C8.37803 7.46175 8.40521 7.44557 8.45355 7.41592C8.36594 7.39166 8.29948 7.37548 8.21791 7.35392C8.22698 7.30539 8.23302 7.25417 8.24208 7.20296C8.39011 7.29461 8.54418 7.238 8.69523 7.22183L8.68013 7.20565L8.69221 7.22722L8.69523 7.22991ZM4.14863 20.2394C4.17884 20.2017 4.22415 20.1666 4.23321 20.1262C4.25134 20.0319 4.25134 19.9375 4.25738 19.8405C4.21207 19.6976 4.16978 19.552 4.11842 19.4091C4.08519 19.3148 4.03685 19.2231 3.99758 19.1288C4.00362 19.083 4.00966 19.0344 4.01873 18.9886C4.0006 18.9886 3.98549 18.9886 3.96737 18.9913L4.0006 19.1234C4.00664 19.3229 4.01268 19.5197 4.02174 19.7192C4.03081 19.8647 4.14863 19.8458 4.25738 19.8405C4.19092 19.8809 4.12144 19.9213 4.07613 19.9483C4.10634 20.0561 4.1305 20.1505 4.15769 20.2475C4.13654 20.296 4.11237 20.3473 4.09123 20.3958C4.11539 20.4012 4.13654 20.4039 4.16071 20.4093C4.15769 20.3526 4.15467 20.296 4.14863 20.2394ZM6.80409 10.4109C6.84336 10.4001 6.88565 10.3866 6.92493 10.3758C6.92493 10.3704 6.9219 10.3677 6.91888 10.3623C6.87961 10.3785 6.84034 10.392 6.80106 10.4082C6.792 10.2922 6.71648 10.2437 6.58959 10.2329C6.42344 10.2195 6.2603 10.1979 6.09717 10.1817C6.01862 10.1736 5.93706 10.1709 5.85851 10.1655C6.14551 10.3866 6.48386 10.3623 6.80409 10.4109ZM5.32682 10.2329C5.26036 10.2572 5.19087 10.2815 5.10628 10.3111C5.44463 10.6022 6.00352 10.7883 6.32374 10.7343C6.08206 10.6454 5.83133 10.5753 5.60475 10.4648C5.49902 10.4136 5.30265 10.4082 5.31776 10.2275L5.32379 10.2329H5.32682ZM17.2265 22.4715C17.3323 22.334 17.435 22.1965 17.5619 22.0294C17.4169 21.9997 17.3202 21.9809 17.2205 21.9593C17.1238 22.1723 16.9093 22.3286 16.9849 22.6197C17.0906 22.555 17.1631 22.5092 17.2356 22.4634L17.2296 22.4715H17.2265ZM3.95226 8.47803C3.95226 8.47803 3.96737 8.4969 3.96434 8.50229C3.96132 8.51847 3.94924 8.53464 3.9432 8.55081C3.85559 8.67482 3.76194 8.79343 3.68339 8.92282C3.63506 9.00369 3.55953 9.11153 3.5837 9.18162C3.64412 9.35145 3.72569 9.53206 3.85559 9.66145C4.09123 9.88789 4.36614 10.0874 4.63803 10.2815C4.74981 10.3596 4.89481 10.4028 5.02169 10.4594C4.69241 9.96067 4.41749 9.48083 4.32686 8.92282C4.3027 8.76377 4.1728 8.61551 4.08519 8.46725C4.07612 8.45377 3.99758 8.47534 3.94924 8.48073L3.95226 8.47803ZM12.7766 8.02246L12.7706 8.03594C12.7524 8.01168 12.7434 7.97393 12.7192 7.96585C12.4171 7.86071 12.118 7.75558 11.8129 7.66393C11.7434 7.64236 11.6558 7.66123 11.5712 7.66123C11.6558 7.77715 11.8099 7.89306 11.7887 7.97932C11.7011 8.34864 11.822 8.70717 11.7797 9.12231C12.4413 8.99831 12.9397 8.62629 13.5681 8.45916C13.3627 8.16263 13.1119 8.03054 12.7766 8.02515V8.02246ZM15.3263 9.39997C15.2146 9.17083 15.1058 8.939 14.7614 8.94169C14.7342 8.91743 14.707 8.89317 14.6798 8.86891C14.4623 8.63439 14.4502 8.63169 14.275 8.76647H14.2811C14.2508 8.939 14.1391 9.14387 14.2055 9.27596C14.2992 9.46196 14.2267 9.59675 14.1844 9.75311C14.1753 9.78276 14.1602 9.8178 14.1693 9.84476C14.2418 10.0712 14.0635 10.1763 13.8883 10.2491C13.411 10.4513 12.9276 10.6373 12.4413 10.8179C12.2661 10.8826 12.0727 10.9042 11.8914 10.9554C11.677 11.0147 11.4655 11.0848 11.254 11.1495C11.2631 11.1603 11.2721 11.1764 11.2842 11.1818C11.2903 11.1845 11.3054 11.1764 11.3175 11.1737H11.3114C11.1181 11.3651 10.8613 11.3786 10.5954 11.3705C10.4535 11.3651 10.3115 11.349 10.1725 11.3651C9.70727 11.4191 9.24807 11.4622 8.77982 11.3813C8.41428 11.3193 8.04572 11.2762 7.68018 11.225C7.66809 11.2438 7.65903 11.2654 7.64694 11.2843C7.7406 11.3328 7.83727 11.4271 7.93092 11.4244C8.31761 11.4164 8.68919 11.4703 9.05171 11.5889C9.1514 11.6212 9.26318 11.6239 9.37193 11.632C9.75258 11.6644 10.1332 11.694 10.5139 11.7291C10.5501 11.7318 10.5834 11.7479 10.6166 11.7533C10.7284 11.7722 10.8401 11.8018 10.9519 11.8045C11.0818 11.8099 11.2147 11.7884 11.3446 11.7803C12.0274 11.7506 12.7192 11.7938 13.3778 11.5889C13.6587 11.5026 13.9397 11.4002 14.1935 11.2627C14.5922 11.0443 14.9698 10.7963 15.3505 10.551C15.4653 10.4756 15.5559 10.3785 15.5348 10.2275C15.5197 10.1197 15.5348 10.0065 15.5348 9.89598C15.5287 9.71267 15.5167 9.52936 15.5046 9.30831C15.4109 9.35953 15.3716 9.38109 15.3324 9.40266L15.3384 9.39457L15.3263 9.39997ZM21.5707 11.1495C21.3593 11.0767 21.1478 10.9931 20.9303 10.9338C20.8185 10.9015 20.6856 10.8853 20.5738 10.9069C20.4832 10.923 20.4076 11.0093 20.3291 11.0605C20.2385 11.0174 20.1871 10.8422 20.0572 11.0201C20.027 11.0605 19.9303 11.0659 19.8639 11.0821C19.6494 11.1333 19.4349 11.1791 19.2174 11.2304C19.1026 11.047 18.8971 11.0336 18.7008 11.0794C18.4228 11.1441 18.157 11.2438 17.8851 11.3301C17.8851 11.3436 17.8851 11.3597 17.8881 11.3732C18.0301 11.3975 18.1691 11.4244 18.3111 11.4487C18.3111 11.473 18.3141 11.4999 18.3171 11.5242C17.9939 11.6104 17.6646 11.6886 17.3323 11.7344C17.4531 11.6455 17.6344 11.6077 17.6736 11.3975C17.4018 11.4649 17.154 11.4972 17.0332 11.7695C17.1601 11.7533 17.2507 11.7398 17.3413 11.7291C17.2235 11.7749 17.1027 11.8207 16.9849 11.8638C16.719 11.9582 16.5317 12.1253 16.6405 12.4111C16.6858 12.5324 16.6948 12.6645 16.7069 12.7939C16.7824 13.5729 16.8731 14.352 16.9214 15.131C16.9577 15.7079 16.9395 16.2875 16.9365 16.8671C16.9365 16.9911 16.8791 17.1178 16.8912 17.2391C16.9335 17.7513 17.003 18.2635 17.0453 18.7783C17.0785 19.1962 17.0845 19.614 17.1117 20.0319C17.1178 20.1208 17.148 20.2071 17.1842 20.3634C17.3141 20.2475 17.3866 20.1855 17.4592 20.1181C17.583 19.9995 17.7008 19.8782 17.8277 19.7623C18.7431 18.9266 19.6735 18.1017 20.4016 17.1205C20.4711 17.0261 20.5134 16.9156 20.5768 16.8159C20.9121 16.2848 21.2807 15.7672 21.5224 15.1904C21.897 14.2981 22.1236 13.3761 22.1749 12.4246C22.181 12.3302 22.1205 12.2197 22.0511 12.1388C21.9604 12.0337 21.8336 11.9501 21.7218 11.8585C21.6976 11.8585 21.6704 11.8585 21.6463 11.8585C21.4136 11.7398 21.181 11.6239 20.9484 11.5053L20.9424 11.5107C21.3653 11.57 21.749 11.7237 22.1568 11.9016C22.1568 11.632 22.0783 11.4379 21.8305 11.3139C21.7369 11.2681 21.6583 11.2007 21.5707 11.1414L21.5828 11.1306L21.5738 11.1468L21.5707 11.1495ZM4.68939 22.3906C4.68939 22.3906 4.67126 22.4068 4.67126 22.4149C4.67126 22.431 4.68335 22.4472 4.68939 22.4634C4.74074 22.5658 4.79512 22.6683 4.85856 22.7977C4.94013 22.7977 5.03378 22.803 5.12743 22.7977C5.52318 22.7653 5.91893 22.7303 6.31468 22.6979C6.87961 22.6521 7.44454 22.6144 8.00644 22.5658C8.38407 22.5335 8.7768 22.5335 9.1363 22.4418C9.42329 22.369 9.6982 22.3556 9.98519 22.3475C10.4202 22.3367 10.8522 22.3313 11.2872 22.3178C11.5622 22.3097 11.8401 22.272 12.115 22.2774C12.7283 22.2855 13.3415 22.3124 13.9548 22.3313L13.9639 22.3367L13.9457 22.3421C14.0847 22.334 14.2267 22.3097 14.3656 22.3178C14.7463 22.3421 15.1239 22.3798 15.5499 22.4149C15.5318 22.2774 15.5136 22.1857 15.5106 22.0914C15.4955 21.7922 15.4321 21.4848 15.4834 21.1964C15.5378 20.8945 15.6496 20.598 15.6405 20.2852C15.6405 20.2556 15.6647 20.2259 15.6768 20.1936C15.7583 19.9941 15.855 19.7973 15.9215 19.5925C16.0967 19.0533 16.1511 18.5007 16.142 17.94C16.1329 17.5572 15.9909 17.1744 16.139 16.7916C16.1571 16.7431 16.139 16.6838 16.139 16.6299C16.0997 16.053 16.0725 15.4734 16.0121 14.8992C15.9487 14.3008 15.849 13.705 15.7644 13.1066C15.7523 13.0149 15.7281 12.926 15.713 12.8397C15.423 12.9367 15.1572 13.0311 14.8913 13.1173C14.3717 13.2872 13.8491 13.4489 13.2992 13.546C12.7464 13.643 12.2087 13.794 11.6981 14.0177C11.5833 14.0662 11.6558 14.1714 11.5501 14.1902C11.4443 14.2091 11.3447 14.2523 11.2389 14.2684C10.7888 14.3412 10.3387 14.4059 9.88853 14.4733C9.8553 14.4787 9.80393 14.4814 9.78581 14.4652C9.64684 14.3358 9.47163 14.3951 9.31152 14.3789C9.1937 14.3655 9.07588 14.3628 8.95504 14.3574C9.0789 14.3008 9.19671 14.2954 9.31453 14.3035C9.42329 14.3116 9.50486 14.2873 9.54716 14.1929V14.1795V14.2037C9.46257 14.2037 9.37797 14.2118 9.29641 14.2037C8.97618 14.1768 8.63179 14.2037 8.34479 14.0986C7.90977 13.9395 7.46266 13.9126 7.01556 13.8614C7.00045 13.8614 6.98232 13.8829 6.96722 13.8937C6.99441 13.9126 7.01858 13.9315 7.10921 13.9962C6.88263 13.9611 6.71346 13.9584 6.56241 13.9099C5.80414 13.6619 5.03982 13.422 4.3752 12.9933C4.30572 12.9502 4.21509 12.934 4.11842 12.8963C4.11842 13.2656 4.11238 13.5972 4.11842 13.9261C4.12748 14.4302 4.13957 14.9316 4.16071 15.433C4.17884 15.8508 4.21509 16.2659 4.24228 16.6838C4.26947 17.0774 4.37822 17.4709 4.25134 17.8672C4.24228 17.8942 4.26343 17.9265 4.27249 17.9562C4.44771 17.8753 4.4326 18.0182 4.43562 18.0829C4.44166 18.3174 4.44166 18.5546 4.41749 18.7891C4.37218 19.2393 4.27551 19.6922 4.57459 20.1127C4.58667 20.1289 4.55646 20.1693 4.54136 20.2098C4.47489 20.1882 4.41447 20.1693 4.31478 20.137C4.53229 20.6357 4.41146 21.1344 4.50511 21.6196C4.54438 21.5819 4.5474 21.5441 4.56553 21.5091C4.58063 21.4768 4.61084 21.4525 4.63199 21.4228C4.69241 21.6277 4.69241 21.8164 4.69241 22.0051C4.69241 22.1318 4.69241 22.2612 4.69241 22.3879L4.68939 22.3906ZM4.13352 21.7841C4.25436 21.5253 4.32082 20.9268 4.25436 20.6815C4.23926 20.6195 4.1728 20.571 4.10936 20.4901C4.06404 20.5575 4.01872 20.5953 4.02174 20.6276C4.05195 20.9996 4.09123 21.3743 4.13352 21.7841ZM3.94924 18.8269C4.12446 18.6166 4.08821 18.0559 3.87069 17.7917C3.89788 18.1556 3.92205 18.4845 3.94924 18.8269ZM9.67403 13.9126C9.67403 13.8964 9.67706 13.8829 9.68008 13.8668C9.45955 13.8371 9.23901 13.8048 9.00941 13.7724C9.0366 13.9665 9.04869 13.9854 9.16046 13.9746C9.33266 13.9584 9.50184 13.9315 9.67403 13.9099V13.9126ZM7.04879 8.71256C7.06389 8.71525 7.08202 8.71795 7.09712 8.72334C7.12129 8.68021 7.16358 8.63439 7.16358 8.59125C7.16358 8.54273 7.12431 8.4942 7.10316 8.44299C7.08504 8.44568 7.06691 8.45107 7.04879 8.45377V8.70987V8.71256ZM16.281 20.792C16.2538 20.792 16.2266 20.792 16.1994 20.7947C16.1752 20.8972 16.148 20.9996 16.2628 21.0994C16.2689 20.9969 16.2749 20.8945 16.281 20.792ZM8.36594 13.8506C8.37501 13.8317 8.38105 13.8155 8.39011 13.7967C8.31459 13.7805 8.23604 13.767 8.16051 13.7508C8.16051 13.7589 8.1575 13.767 8.15447 13.7751C8.22396 13.7994 8.29646 13.8263 8.36594 13.8506ZM15.7523 20.8298C15.7221 20.9349 15.707 20.9646 15.707 20.9942C15.707 21.0266 15.7251 21.0589 15.7372 21.094C15.7613 21.0886 15.7855 21.0859 15.8097 21.0805C15.7946 21.0212 15.7825 20.9646 15.7523 20.8325V20.8298ZM6.99441 11.1818C6.99441 11.1818 6.99441 11.1603 6.99441 11.1495H6.80409C6.80409 11.1495 6.80409 11.171 6.80409 11.1818H6.99441ZM15.3656 22.5416C15.42 22.5631 15.4562 22.5793 15.4593 22.5766C15.4774 22.5523 15.4864 22.5254 15.4985 22.5011C15.4623 22.5119 15.429 22.5227 15.3656 22.5416ZM2.89793 16.6622C2.89793 16.646 2.90397 16.6299 2.907 16.6137C2.907 16.6299 2.90095 16.646 2.89793 16.6622ZM15.1602 22.4957V22.4796C15.1511 22.4796 15.139 22.4769 15.13 22.4796C15.1209 22.4796 15.1118 22.485 15.1028 22.4876C15.1239 22.4903 15.142 22.493 15.1632 22.4957H15.1602ZM4.56854 22.1049C4.56854 22.1049 4.58063 22.1049 4.58969 22.1049C4.58667 22.0779 4.58365 22.0536 4.58063 22.0267C4.57459 22.0294 4.56251 22.0348 4.56251 22.0375C4.56251 22.0617 4.56855 22.0833 4.57157 22.1076L4.56854 22.1049ZM23.8607 13.9342C23.8455 13.9557 23.8335 13.9665 23.8274 13.98C23.8244 13.9881 23.8274 14.0069 23.8304 14.0069C23.8425 14.0069 23.8576 14.0069 23.8727 14.0069C23.8697 13.9881 23.8667 13.9719 23.8607 13.9368V13.9342ZM11.0274 14.1094C11.0456 14.0986 11.0637 14.0878 11.0848 14.077C11.0667 14.0662 11.0486 14.0447 11.0335 14.0447C11.0154 14.0447 10.9972 14.0636 10.9791 14.0743C10.9972 14.0851 11.0123 14.0959 11.0305 14.1067L11.0274 14.1094ZM11.2842 14.0393C11.3024 14.0312 11.3175 14.0231 11.3356 14.015C11.3295 14.0096 11.3205 13.9962 11.3144 13.9962C11.2933 13.9962 11.2721 14.0015 11.254 14.0042C11.2661 14.015 11.2752 14.0258 11.2872 14.0366L11.2842 14.0393ZM2.55354 15.9263C2.55354 15.9263 2.52635 15.8993 2.51426 15.8859C2.50822 15.8939 2.49614 15.9047 2.49916 15.9101C2.51125 15.9263 2.52635 15.9398 2.54146 15.9532C2.5475 15.9452 2.55052 15.9344 2.55656 15.9263H2.55354ZM2.95835 16.0826C2.95835 16.0826 2.95835 16.0665 2.95533 16.0557C2.94023 16.0584 2.92512 16.0638 2.91002 16.0665C2.91606 16.0745 2.9221 16.0853 2.92814 16.088C2.93721 16.088 2.94929 16.0853 2.95835 16.0826ZM7.97321 9.01448C7.95509 9.00908 7.943 9.00639 7.93092 9.0037C7.93092 9.01179 7.93696 9.01987 7.93998 9.02796C7.94904 9.02526 7.95811 9.02256 7.97623 9.01448H7.97321ZM9.16953 4.99248C9.1514 4.99787 9.13328 5.00326 9.11213 5.00865C9.12421 5.01943 9.13932 5.03021 9.15442 5.0383C9.16047 5.041 9.17557 5.03291 9.18463 5.03291C9.17859 5.01943 9.17557 5.00595 9.16953 4.99517V4.99248ZM4.08519 17.7648C4.07612 17.7486 4.07008 17.7351 4.06102 17.7189C4.05498 17.727 4.04289 17.7324 4.04289 17.7405C4.04289 17.7567 4.04894 17.7755 4.05196 17.7917C4.06404 17.7809 4.0731 17.7728 4.08519 17.7621V17.7648ZM4.07008 17.3981L4.05498 17.4197L4.07613 17.4251L4.07008 17.3981ZM7.04576 8.86352C7.04576 8.86352 7.03066 8.877 7.02764 8.88509C7.02764 8.89317 7.0367 8.90126 7.04274 8.90935C7.04879 8.90126 7.06087 8.89586 7.06087 8.88778C7.06087 8.87969 7.05181 8.8716 7.04576 8.86352ZM23.8093 15.4033C23.8093 15.4033 23.8032 15.3898 23.7972 15.3818C23.7972 15.3952 23.7942 15.406 23.7912 15.4195L23.8063 15.4033H23.8093ZM16.1148 21.2153L16.0997 21.2368L16.1239 21.2422L16.1148 21.218V21.2153ZM10.6498 14.1444C10.6498 14.1444 10.6317 14.139 10.6226 14.1363C10.6287 14.1471 10.6347 14.1552 10.6408 14.166C10.6408 14.1579 10.6468 14.1525 10.6498 14.1444ZM16.0937 22.1588L16.0665 22.1696L16.0937 22.1803V22.1588ZM7.51704 11.2951C7.51704 11.2951 7.49892 11.2897 7.49287 11.2897C7.49287 11.2897 7.48683 11.3004 7.48683 11.3058C7.49589 11.3058 7.50496 11.3112 7.511 11.3112C7.511 11.3112 7.51704 11.3004 7.51704 11.2951ZM8.63783 13.8856C8.63783 13.8856 8.62273 13.8802 8.61366 13.8775C8.61971 13.8856 8.62273 13.8964 8.62877 13.9045C8.62877 13.8991 8.63481 13.891 8.63783 13.8856ZM10.3145 23.3988C10.3145 23.3988 10.3084 23.3826 10.3024 23.3799C10.2933 23.3772 10.2843 23.3799 10.2752 23.3799C10.2813 23.3907 10.2873 23.3988 10.2933 23.4096C10.3024 23.4042 10.3084 23.4015 10.3175 23.3961L10.3145 23.3988ZM11.5742 23.4554L11.5501 23.4635L11.5742 23.4716V23.4554ZM7.26026 13.6403L7.27234 13.6268H7.25421L7.26026 13.6403Z" fill="#262626"/>
<path d="M4.65613 4.30517C4.54436 4.34021 4.42654 4.39144 4.30268 4.41031C3.87369 4.46961 3.44471 4.52353 3.01573 4.56396C2.55351 4.6071 2.11547 4.48039 1.74993 4.25395C1.41158 4.04638 1.23636 3.71482 1.29074 3.32663C1.32699 3.07324 1.36928 2.81984 1.4146 2.54218C1.33907 2.55835 1.2847 2.55835 1.25146 2.57992C0.910091 2.80096 0.562678 2.6554 0.224326 2.58261C-0.00829045 2.53409 -0.0807943 2.11356 0.106508 1.96529C0.133697 1.94373 0.182032 1.91677 0.200158 1.92486C0.481111 2.04617 0.677472 1.84669 0.894984 1.76851C1.46897 1.56364 1.83452 1.68494 2.29069 2.0866C2.47195 2.24565 2.54445 2.45052 2.5082 2.67966C2.48101 2.86027 2.44476 3.04088 2.41455 3.2215C2.3934 3.3482 2.36923 3.47759 2.36621 3.60429C2.36017 3.86038 2.39038 3.89273 2.66831 3.89004C3.10032 3.88464 3.53232 3.8469 3.96432 3.85499C4.13048 3.85769 4.29361 3.95473 4.45976 4.00325C4.61081 4.04638 4.65915 4.14073 4.65915 4.30517H4.65613Z" fill="#262626"/>
<path d="M9.23564 3.00033C9.19032 3.04076 9.14501 3.0839 9.09969 3.12434L9.10875 3.11625C8.94864 3.28878 8.79155 3.46669 8.62237 3.63382C8.52872 3.72817 8.4109 3.80096 8.33236 3.86296C8.11183 3.74974 7.93057 3.65808 7.71003 3.54756C7.51367 3.23755 7.76743 2.98146 7.98494 2.71458C8.14505 2.5178 8.30517 2.31832 8.48945 2.09188C8.34747 2.02718 8.23871 1.98944 8.14203 1.93013C7.91546 1.78995 7.6768 1.65517 7.4744 1.48804C7.08167 1.15916 7.09979 0.67393 7.49856 0.347749C7.79764 0.102439 8.16016 0 8.55893 0C8.61331 0 8.70394 0.0161753 8.71603 0.0431324C8.78551 0.204875 9.04833 0.204874 9.0725 0.404357C9.09365 0.576882 9.03323 0.657756 8.8278 0.676626C8.74321 0.684714 8.65863 0.687409 8.57404 0.6928C8.57706 0.687409 8.5831 0.682018 8.58612 0.676626C8.58008 0.676626 8.57102 0.682018 8.56498 0.684713C8.41091 0.846456 8.13901 0.921934 8.09974 1.1969C8.32329 1.3182 8.55289 1.4476 8.78853 1.56891C9.0725 1.71448 9.23866 1.949 9.38367 2.19431C9.56493 2.49893 9.4894 2.7712 9.22959 3.01381V3.00573L9.23564 3.00033ZM7.73118 0.479836C7.90338 0.407052 8.07557 0.334269 8.24777 0.261484C8.02422 0.239919 7.83691 0.283055 7.73722 0.46906L7.7191 0.477146H7.72816L7.73118 0.479836ZM8.11183 0.560713L8.12693 0.571498V0.555324L8.11183 0.560713Z" fill="#262626"/>
<path d="M12.3593 4.21344C12.2566 4.1784 12.2807 4.11641 12.3261 4.0598C12.4831 3.86031 12.6312 3.65004 12.9001 3.5503C12.8457 3.66622 12.7913 3.78214 12.7369 3.89805C12.6372 3.90344 12.5859 3.93848 12.6342 4.08944C12.6795 3.99509 12.7037 3.94118 12.7279 3.88996C12.9937 3.87109 13.0873 3.70126 13.1508 3.50447C13.175 3.47482 13.1991 3.44517 13.2233 3.41552C13.3139 3.41012 13.4257 3.43438 13.4861 3.39664C13.6644 3.28073 13.8275 3.14325 13.9876 3.00846C14.0118 2.98959 13.9997 2.93299 14.0027 2.89525L14.0239 2.91681L14.0057 2.89525C13.7459 3.07316 13.4861 3.25107 13.2293 3.42899C13.2052 3.45595 13.181 3.4856 13.1568 3.51256C13.0692 3.52873 12.9786 3.5476 12.891 3.56378C13.0874 3.25916 13.4106 3.07316 13.7127 2.86829C13.8728 2.75776 14.0299 2.64724 14.2081 2.52054C14.1175 2.42619 14.0601 2.36149 13.9937 2.30219C13.6885 2.02722 13.3774 1.76035 13.0813 1.48269C12.9212 1.33442 12.8155 1.15381 12.8155 0.938156C12.8155 0.574235 13.1115 0.280401 13.5949 0.229182C13.9 0.196834 14.2202 0.207618 14.5253 0.248054C14.8818 0.296577 15.1205 0.506839 15.2504 0.808759C15.2595 0.83302 15.2353 0.86807 15.2141 0.940854C15.0238 0.881549 14.8395 0.824935 14.6371 0.760238C14.3743 0.865371 14.3773 0.85998 13.8879 0.80337C13.7157 0.7845 13.6009 0.881548 13.5284 1.01633C13.5496 1.02442 13.5707 1.03251 13.5919 1.04329L13.5828 1.03521C13.4831 1.19425 13.5465 1.30478 13.6916 1.42069C13.9937 1.66061 14.2927 1.90862 14.5707 2.1728C14.7066 2.30219 14.8123 2.46662 14.8879 2.63106C15.0782 3.05159 14.8395 3.46404 14.326 3.63926L14.332 3.64734C14.3773 3.58534 14.4226 3.52335 14.4679 3.45865C14.4891 3.4236 14.5102 3.38856 14.5344 3.35621H14.5495C14.5495 3.35621 14.5405 3.3643 14.5405 3.367C14.5193 3.40204 14.4982 3.43439 14.477 3.46943C14.2686 3.46404 14.1417 3.57726 14.0329 3.71205L14.048 3.70126C13.9695 3.74709 13.894 3.79561 13.8154 3.84144L13.8305 3.83335L13.6009 3.97083L13.616 3.96005C13.5375 3.99779 13.4589 4.03553 13.3834 4.07597C13.3592 4.10832 13.3381 4.13797 13.3139 4.16762L13.3049 4.15954C13.329 4.12719 13.3532 4.09753 13.3774 4.06518C13.4317 4.07597 13.4861 4.08675 13.5405 4.09753L13.5314 4.08944C13.32 4.27006 13.1085 4.44797 12.8668 4.65015C12.7913 4.55041 12.5617 4.57737 12.7067 4.36171C12.5889 4.39945 12.4831 4.4318 12.3472 4.47224C12.3532 4.36441 12.3563 4.28623 12.3623 4.20536C12.3804 4.20536 12.3986 4.21075 12.4167 4.21344C12.4167 4.20266 12.4106 4.18918 12.4076 4.1784C12.3925 4.18918 12.3804 4.20266 12.3653 4.21344H12.3593ZM14.0964 3.31038C14.0269 3.35621 13.9604 3.40473 13.8909 3.45056C13.6885 3.45056 13.5707 3.57456 13.4499 3.69317C13.4076 3.74439 13.3683 3.79561 13.326 3.84683C13.1568 3.8684 12.9846 3.88727 12.9454 4.08136C12.9423 4.08136 12.9393 4.07597 12.9363 4.07327C13.1478 4.10562 13.184 3.90614 13.3169 3.83605C13.3562 3.78483 13.3985 3.73361 13.4378 3.68239C13.6493 3.69587 13.7641 3.56378 13.8849 3.44248C13.9544 3.39665 14.0208 3.35082 14.0903 3.30229C14.1266 3.2969 14.1628 3.29151 14.2021 3.28882C14.1961 3.27803 14.19 3.26725 14.184 3.25377C14.1538 3.27264 14.1266 3.29152 14.0964 3.30769V3.31038ZM13.2112 0.873461L13.2293 0.857288L13.2142 0.868065C13.2233 0.911196 13.2324 0.95433 13.2414 0.997462L13.2928 0.843804C13.4317 0.795281 13.5707 0.744066 13.7067 0.695543C13.5073 0.641629 13.3774 0.700937 13.3018 0.849201C13.2716 0.857288 13.2384 0.865372 13.2112 0.870763V0.873461ZM14.2958 0.700932C14.2323 0.71441 14.1719 0.730586 14.1085 0.744064C14.1205 0.762934 14.1326 0.7845 14.1417 0.80337C14.19 0.768326 14.2383 0.73059 14.2897 0.698242C14.3169 0.703633 14.3441 0.709025 14.3018 0.698242C14.3471 0.69285 14.3199 0.698242 14.2927 0.698242L14.2958 0.700932ZM13.8547 0.390927C13.4015 0.355882 13.2082 0.434058 13.1387 0.668585C13.3925 0.571539 13.6251 0.479885 13.8547 0.390927ZM14.0782 0.487977L14.0662 0.501452H14.0843L14.0782 0.487977Z" fill="#262626"/>
<path d="M18.5743 21.2477C18.5079 21.1102 18.6076 21.0266 18.7012 20.9457C18.9852 20.7031 19.2722 20.4632 19.5561 20.2206C19.6135 20.1694 19.6619 20.1101 19.7132 20.0535H19.7102C19.7676 20.2287 19.6649 20.3365 19.532 20.4417C19.2601 20.6546 18.9942 20.8676 18.7284 21.0859C18.671 21.1344 18.6287 21.1991 18.5773 21.2558L18.5713 21.2477H18.5743Z" fill="#262626"/>
<path d="M6.05767 23.6926C6.00631 23.698 5.95495 23.7061 5.90359 23.7115C5.90359 23.698 5.89755 23.6845 5.89453 23.6683C5.94589 23.6575 5.99725 23.6495 6.04861 23.6387C6.04861 23.6575 6.05162 23.6737 6.05464 23.6926H6.05767Z" fill="#262626"/>
<path d="M6.34454 23.5661C6.38381 23.5903 6.42611 23.6146 6.46538 23.6361C6.45632 23.6496 6.44725 23.6631 6.43819 23.6739C6.39288 23.6523 6.34756 23.6308 6.30225 23.6092C6.31433 23.593 6.32944 23.5795 6.34152 23.5634L6.34454 23.5661Z" fill="#262626"/>
<path d="M18.2961 21.3528C18.2659 21.4094 18.2387 21.4633 18.2085 21.5199C18.1934 21.5064 18.1753 21.4957 18.1602 21.4822C18.2085 21.4417 18.2568 21.4013 18.3052 21.3609L18.2991 21.3555L18.2961 21.3528Z" fill="#262626"/>
<path d="M14.172 3.6958C14.0995 3.73893 14.03 3.78476 13.9575 3.82789L13.9636 3.83328C13.9877 3.78745 14.0149 3.74163 14.0391 3.6958L14.024 3.70658C14.0753 3.70658 14.1267 3.70658 14.178 3.70658L14.169 3.69849L14.172 3.6958Z" fill="#262626"/>
<path d="M13.9577 3.82802C13.8852 3.87115 13.8127 3.91428 13.7402 3.95471L13.7463 3.9628C13.7704 3.91697 13.7976 3.87114 13.8218 3.82532L13.8067 3.8334C13.8581 3.8334 13.9094 3.8334 13.9608 3.8334L13.9547 3.82802H13.9577Z" fill="#262626"/>
<path d="M13.7401 3.95459L13.5195 4.08668L13.5286 4.09476C13.5558 4.04894 13.58 4.00312 13.6071 3.95729L13.592 3.96807C13.6434 3.96807 13.6947 3.96807 13.7461 3.96807L13.7401 3.95998V3.95459Z" fill="#262626"/>
<path d="M18.3019 21.3581C18.3563 21.3527 18.4107 21.3446 18.4651 21.3392L18.4711 21.3419C18.4137 21.3446 18.3533 21.35 18.2959 21.3527L18.3019 21.3581Z" fill="#262626"/>
<path d="M17.8486 21.9836C17.8365 21.9567 17.8274 21.9297 17.8184 21.9001C17.8184 21.9001 17.8365 21.8947 17.8425 21.8893C17.8425 21.9162 17.8425 21.9459 17.8425 21.9755L17.8516 21.9809L17.8486 21.9836Z" fill="#262626"/>
<path d="M13.5862 1.04065C13.6043 1.02987 13.6225 1.01908 13.6406 1.0083C13.6194 1.01639 13.5983 1.02447 13.5771 1.03256L13.5862 1.04065Z" fill="#262626"/>
<path d="M14.3199 3.63379C14.2716 3.65535 14.2202 3.67692 14.1719 3.69848L14.1809 3.70657C14.2293 3.685 14.2776 3.66344 14.3259 3.64188L14.3199 3.63379Z" fill="#262626"/>
<path d="M2.4357 11.8988L2.41455 11.8961L2.42965 11.9069L2.4357 11.8988Z" fill="#262626"/>
<path d="M2.4292 11.9069C2.45941 11.9312 2.48962 11.9581 2.51983 11.9824L2.52889 11.977C2.49868 11.95 2.46847 11.9258 2.43524 11.8988L2.4292 11.9069Z" fill="#262626"/>
<path d="M9.2334 3.01106L9.24549 2.99219L9.23642 3.00027L9.2334 3.01106Z" fill="#262626"/>
<path d="M23.5312 15.9236C23.507 15.9236 23.4798 15.9236 23.4557 15.9236L23.4526 15.9317C23.4798 15.9317 23.51 15.9317 23.5372 15.9317L23.5312 15.9236Z" fill="#262626"/>
<path d="M20.678 19.2044C20.678 19.2044 20.678 19.2178 20.678 19.2232C20.678 19.2205 20.6726 19.2178 20.6699 19.2124L20.6753 19.2017L20.678 19.2044Z" fill="#262626"/>
<path d="M20.5552 19.6409C20.5552 19.6409 20.5582 19.6301 20.5612 19.6248C20.5612 19.6275 20.5673 19.6301 20.5703 19.6328L20.5552 19.6409Z" fill="#262626"/>
<path d="M19.9482 19.8324C19.9482 19.8324 19.9543 19.8486 19.9573 19.8567L19.9785 19.8243C19.9785 19.8243 19.9603 19.8297 19.9513 19.8324H19.9482Z" fill="#262626"/>
<path d="M19.9513 19.8324C19.9392 19.8701 19.9271 19.9052 19.915 19.9402L19.9241 19.9483C19.9332 19.9106 19.9392 19.8701 19.9483 19.8324H19.9513Z" fill="#262626"/>
<path d="M19.8188 19.9779C19.8521 19.9671 19.8883 19.9591 19.9246 19.9483L19.9155 19.9402C19.8823 19.9483 19.8491 19.9564 19.8188 19.9671V19.9779Z" fill="#262626"/>
<path d="M19.7134 20.0535C19.7496 20.0293 19.7859 20.005 19.8221 19.9808V19.97C19.7859 19.9969 19.7496 20.0266 19.7134 20.0562V20.0535Z" fill="#262626"/>
<path d="M18.4653 21.3392C18.5016 21.3096 18.5378 21.2772 18.5711 21.2476C18.5711 21.2476 18.5741 21.2556 18.5771 21.2556C18.5409 21.2853 18.5076 21.3123 18.4714 21.3419H18.4653V21.3392Z" fill="#262626"/>
<path d="M7.05469 23.4176L7.06677 23.4392V23.423L7.05469 23.4176Z" fill="#262626"/>
<path d="M6.80096 23.5821C6.80096 23.5821 6.82513 23.5794 6.83722 23.5767L6.84325 23.5686C6.82815 23.5686 6.81003 23.5713 6.79492 23.5713L6.80096 23.5794V23.5821Z" fill="#262626"/>
<path d="M6.79468 23.5741C6.79468 23.5741 6.77655 23.5795 6.77051 23.5795C6.77957 23.5795 6.79165 23.5795 6.80072 23.5795L6.79468 23.5714V23.5741Z" fill="#262626"/>
<path d="M6.8374 23.5766L6.8525 23.5658H6.84344L6.8374 23.5739V23.5766Z" fill="#262626"/>
<path d="M9.40787 14.4491C8.78856 14.5893 8.17229 14.6001 7.57715 14.4491H9.40787Z" fill="#262626"/>
<path d="M15.6436 15.3789C15.701 15.3951 15.7342 15.3951 15.7432 15.4086C15.7674 15.4436 15.7946 15.4813 15.7976 15.5218C15.8248 15.8264 15.849 16.1283 15.8732 16.4329C15.849 16.4329 15.8248 16.4356 15.8006 16.4383C15.7493 16.0906 15.6979 15.7428 15.6436 15.3816V15.3789Z" fill="#262626"/>
<path d="M8.23571 14.306C8.0756 14.2871 7.91548 14.2683 7.75537 14.2467L7.76443 14.182C7.92455 14.1955 8.08466 14.2063 8.2478 14.2197C8.24477 14.2494 8.24175 14.2764 8.23873 14.306H8.23571Z" fill="#262626"/>
<path d="M15.6132 14.2845C15.6011 14.1767 15.589 14.0662 15.5679 13.8964C15.6404 14.0114 15.6555 14.1408 15.6132 14.2845Z" fill="#262626"/>
<path d="M16.0544 17.8375C16.0332 17.9669 16.0121 18.0936 15.9788 18.2823C15.8369 18.0666 15.9215 17.9399 15.9849 17.8132C16.0091 17.8213 16.0302 17.8294 16.0544 17.8375Z" fill="#262626"/>
<path d="M15.6975 14.8022C15.6884 14.7213 15.6824 14.6405 15.6733 14.5596C15.6945 14.5596 15.7187 14.5542 15.7398 14.5515C15.7519 14.6324 15.764 14.7133 15.7761 14.7941C15.7489 14.7941 15.7217 14.7995 15.6945 14.8022H15.6975Z" fill="#262626"/>
<path d="M15.8094 15.2631L15.8125 15.2819L15.7974 15.2792L15.8094 15.2631Z" fill="#262626"/>
<path d="M7.31787 14.0177C7.31787 14.0177 7.336 14.0123 7.34204 14.0096V14.0447C7.34204 14.0447 7.32693 14.0447 7.32089 14.0366C7.31485 14.0339 7.32089 14.0231 7.31787 14.015V14.0177Z" fill="#262626"/>
<path d="M4.42041 13.3625C4.47479 13.3625 4.52916 13.3652 4.58354 13.3679C4.53219 13.3679 4.48083 13.3625 4.42947 13.3625H4.42041Z" fill="#262626"/>
<path d="M5.23572 13.6377V13.6027C5.23572 13.6027 5.22967 13.6215 5.22363 13.6296L5.23572 13.6377Z" fill="#262626"/>
<path d="M5.22363 13.6294C5.22363 13.6294 5.24176 13.624 5.25384 13.624C5.2478 13.6294 5.24176 13.6321 5.23572 13.6375L5.22666 13.6321L5.22363 13.6294Z" fill="#262626"/>
<path d="M20.9451 11.508H20.6943C20.7004 11.4837 20.7034 11.4595 20.7094 11.4325C20.785 11.4595 20.8605 11.4864 20.939 11.5134L20.9481 11.5053L20.9451 11.508Z" fill="#262626"/>
<path d="M20.3624 11.2304C20.3987 11.2304 20.4349 11.2277 20.4712 11.225C20.4712 11.2331 20.4712 11.2385 20.4712 11.2465C20.4379 11.2546 20.4077 11.2627 20.3745 11.2708C20.3684 11.2573 20.3654 11.2438 20.3594 11.2304H20.3624Z" fill="#262626"/>
<path d="M20.9174 11.093C20.8993 11.0957 20.8751 11.1064 20.863 11.0984C20.8509 11.093 20.8449 11.0687 20.8389 11.0552C20.857 11.0525 20.8812 11.0417 20.8932 11.0498C20.9053 11.0552 20.9083 11.0795 20.9174 11.093Z" fill="#262626"/>
<path d="M11.3117 11.1793C11.36 11.1739 11.4084 11.1658 11.4567 11.1604C11.4567 11.1712 11.4567 11.1847 11.4567 11.1954C11.4084 11.19 11.357 11.1847 11.3057 11.1766H11.3117V11.1793Z" fill="#262626"/>
<path d="M14.471 8.83912C14.4075 8.81756 14.3441 8.79329 14.2776 8.77173C14.2776 8.77173 14.2716 8.77173 14.2686 8.77173C14.329 8.79329 14.3924 8.81486 14.4528 8.83642H14.4679L14.471 8.83912Z" fill="#262626"/>
<path d="M11.8488 11.0822L11.8096 11.1037C11.8096 11.1037 11.8186 11.0929 11.8247 11.0902C11.8337 11.0902 11.8428 11.0902 11.8519 11.0902L11.8458 11.0849L11.8488 11.0822Z" fill="#262626"/>
<path d="M11.8561 11.0876L11.8622 11.0741L11.8501 11.0822L11.8561 11.0876Z" fill="#262626"/>
<path d="M15.3169 9.4135L15.338 9.40002C15.338 9.40002 15.3229 9.40272 15.3229 9.40541L15.3169 9.4135Z" fill="#262626"/>
<path d="M14.8757 9.05226C14.8757 9.05226 14.8606 9.05765 14.8516 9.05765C14.8606 9.06304 14.8727 9.07113 14.8818 9.07652C14.8818 9.06843 14.8818 9.06304 14.8757 9.05496V9.04956V9.05226Z" fill="#262626"/>
<path d="M14.7223 9.04409C14.7736 9.04679 14.825 9.04948 14.8794 9.05218C14.8794 9.05218 14.8794 9.05757 14.8794 9.05488C14.828 9.04949 14.7766 9.04409 14.7253 9.0387L14.7192 9.04409H14.7223Z" fill="#262626"/>
<path d="M14.6787 8.93896C14.7059 8.93896 14.7361 8.93896 14.7633 8.93896C14.7512 8.97401 14.7361 9.00636 14.721 9.0414C14.721 9.0414 14.727 9.03601 14.724 9.0387C14.7089 9.00636 14.6938 8.97131 14.6787 8.93896Z" fill="#262626"/>
<path d="M14.4557 8.83658C14.4557 8.83658 14.4708 8.83119 14.4768 8.82849C14.4768 8.83388 14.4708 8.83658 14.4677 8.84197L14.4526 8.83928L14.4557 8.83658Z" fill="#262626"/>
<path d="M6.32287 8.13299C6.29568 8.13299 6.26547 8.1276 6.23828 8.12491C6.23828 8.12491 6.23828 8.11952 6.23828 8.11682C6.26547 8.12221 6.29568 8.12491 6.32287 8.1303V8.13299Z" fill="#262626"/>
<path d="M5.86182 8.27589L5.8699 8.28398L5.86451 8.27319L5.86182 8.27589Z" fill="#262626"/>
<path d="M6.02797 8.27859C5.97359 8.27859 5.91619 8.27859 5.86182 8.27589V8.27319C5.91619 8.27319 5.97057 8.27858 6.02495 8.28128L6.02797 8.27859Z" fill="#262626"/>
<path d="M6.02746 8.28129C6.02141 8.23546 6.01235 8.18964 6.00631 8.14111C6.00631 8.14111 6.00027 8.1492 6.00329 8.1465C6.01235 8.18963 6.02141 8.23277 6.03047 8.2786L6.02746 8.28129Z" fill="#262626"/>
<path d="M13.0425 8.21122C13.0425 8.21122 13.0305 8.19774 13.0244 8.19235C13.0335 8.18696 13.0486 8.17887 13.0546 8.18157C13.0637 8.18965 13.0697 8.20314 13.0788 8.21122C13.0667 8.21122 13.0546 8.21122 13.0456 8.21122H13.0425Z" fill="#262626"/>
<path d="M12.7765 8.02783C12.7765 8.02783 12.7825 8.04131 12.7855 8.0467C12.7825 8.0467 12.7765 8.04132 12.7734 8.04132L12.7765 8.02783Z" fill="#262626"/>
<path d="M4.34473 9.73433L4.35379 9.71545L4.36285 9.73433H4.34473Z" fill="#262626"/>
<path d="M17.2331 22.4687C17.2331 22.4687 17.2059 22.4472 17.1938 22.4364C17.2029 22.4499 17.215 22.4634 17.2241 22.4768L17.2331 22.4687Z" fill="#262626"/>
</svg>
