<svg width="24" height="24" viewBox="0 0 24 24" fill="none" xmlns="http://www.w3.org/2000/svg">
<path d="M7.16146 3C6.63431 2.99998 6.17954 2.99997 5.80497 3.03057C5.40963 3.06287 5.01641 3.13419 4.63803 3.32698C4.07354 3.6146 3.6146 4.07354 3.32698 4.63803C3.13419 5.01641 3.06287 5.40963 3.03057 5.80497C2.99997 6.17954 2.99998 6.63431 3 7.16145V8C3 8.55229 3.44772 9 4 9H10C10.5523 9 11 8.55229 11 8V4C11 3.44772 10.5523 3 10 3H7.16146Z" fill="#1A1A1A"/>
<path d="M14 15C13.4477 15 13 15.4477 13 16V20C13 20.5523 13.4477 21 14 21H16.8385C17.3657 21 17.8205 21 18.195 20.9694C18.5904 20.9371 18.9836 20.8658 19.362 20.673C19.9265 20.3854 20.3854 19.9265 20.673 19.362C20.8658 18.9836 20.9371 18.5904 20.9694 18.195C21 17.8205 21 17.3657 21 16.8385V16C21 15.4477 20.5523 15 20 15H14Z" fill="#1A1A1A"/>
<path d="M4 11C3.44772 11 3 11.4477 3 12V16.8385C2.99998 17.3657 2.99997 17.8205 3.03057 18.195C3.06287 18.5904 3.13419 18.9836 3.32698 19.362C3.6146 19.9265 4.07354 20.3854 4.63803 20.673C5.01641 20.8658 5.40963 20.9371 5.80497 20.9694C6.17954 21 6.6343 21 7.16145 21H10C10.5523 21 11 20.5523 11 20V12C11 11.4477 10.5523 11 10 11H4Z" fill="#1A1A1A"/>
<path d="M19.362 3.32698C18.9836 3.13419 18.5904 3.06287 18.195 3.03057C17.8205 2.99997 17.3657 2.99998 16.8385 3H14C13.4477 3 13 3.44772 13 4V12C13 12.5523 13.4477 13 14 13H20C20.5523 13 21 12.5523 21 12V7.16146C21 6.63431 21 6.17955 20.9694 5.80497C20.9371 5.40963 20.8658 5.01641 20.673 4.63803C20.3854 4.07354 19.9265 3.6146 19.362 3.32698Z" fill="#1A1A1A"/>
</svg>
