<?xml version="1.0" standalone="no"?>
<!DOCTYPE svg PUBLIC "-//W3C//DTD SVG 20010904//EN"
 "http://www.w3.org/TR/2001/REC-SVG-20010904/DTD/svg10.dtd">
<svg version="1.0" xmlns="http://www.w3.org/2000/svg"
 width="959.000000pt" height="960.000000pt" viewBox="0 0 959.000000 960.000000"
 preserveAspectRatio="xMidYMid meet">

<g transform="translate(0.000000,960.000000) scale(0.100000,-0.100000)"
fill="#000000" stroke="none">
<path d="M2857 8828 c-13 -18 -526 -758 -1138 -1643 -663 -958 -1133 -1647
-1161 -1700 -102 -200 -133 -336 -125 -560 7 -223 52 -353 196 -567 63 -93
585 -766 631 -812 18 -18 52 -1 1395 684 757 386 1378 700 1380 698 2 -2 -295
-429 -660 -948 -365 -520 -685 -981 -712 -1025 -64 -107 -120 -240 -150 -355
-21 -77 -25 -120 -26 -230 -1 -74 5 -162 12 -195 32 -152 94 -300 184 -437 41
-64 728 -951 767 -992 4 -4 724 356 1598 800 l1590 809 -1019 3 c-560 1 -1019
4 -1019 6 0 3 1018 1453 2261 3223 1244 1770 2270 3230 2281 3246 l19 27
-1179 0 -1179 0 -1375 -1957 -1375 -1958 -886 -3 c-603 -1 -887 1 -887 8 0 8
2544 3637 2707 3863 l35 47 -1071 0 -1070 0 -24 -32z"/>
</g>
</svg>
