<svg width="24" height="24" viewBox="0 0 24 24" fill="none" xmlns="http://www.w3.org/2000/svg">
<path d="M3.56945 13.0002L3.1544 13.2026C1.65687 13.9331 1.65687 16.0672 3.1544 16.7977L11.1235 20.6851C11.6769 20.955 12.3238 20.955 12.8772 20.6851L20.8463 16.7977C22.3438 16.0672 22.3438 13.9331 20.8463 13.2026L20.4312 13.0002L12.8772 16.6851C12.3238 16.955 11.6769 16.955 11.1235 16.6851L3.56945 13.0002Z" fill="#1A1A1A"/>
<path d="M12.8772 3.31526C12.3238 3.04531 11.6769 3.0453 11.1235 3.31526L3.1544 7.20262C1.65687 7.93312 1.65686 10.0672 3.1544 10.7977L11.1235 14.6851C11.6769 14.955 12.3238 14.955 12.8772 14.6851L20.8463 10.7977C22.3438 10.0672 22.3438 7.93313 20.8463 7.20262L12.8772 3.31526Z" fill="#1A1A1A"/>
</svg>
