<svg width="20" height="20" viewBox="0 0 20 20" fill="none" xmlns="http://www.w3.org/2000/svg">
<path fill-rule="evenodd" clip-rule="evenodd" d="M15.4453 4.55457C13.8169 2.92626 11.1769 2.92626 9.54867 4.55457L9.54475 4.55845L8.9185 5.17646C8.591 5.49975 8.06335 5.49628 7.74005 5.16871C7.41676 4.84114 7.42023 4.31351 7.7478 3.99022L8.37217 3.37405C10.6515 1.09687 14.3453 1.09755 16.6238 3.37606C18.9023 5.6546 18.903 9.34842 16.6258 11.6278L16.6238 11.6298L16.0096 12.252C15.6863 12.5796 15.1587 12.5831 14.8312 12.2598C14.5036 11.9365 14.5001 11.4088 14.8234 11.0813L15.4453 10.4512C17.0736 8.82292 17.0736 6.18289 15.4453 4.55457ZM5.16854 7.74022C5.49611 8.06351 5.49958 8.59117 5.17629 8.91867L4.55441 9.54884C2.9261 11.1771 2.9261 13.8171 4.5544 15.4454C6.18272 17.0738 8.82275 17.0738 10.451 15.4454L10.4549 15.4416L11.0812 14.8236C11.4087 14.5003 11.9363 14.5038 12.2596 14.8313C12.5829 15.1588 12.5794 15.6865 12.2518 16.0098L11.6296 16.6239L11.6275 16.6259C9.34817 18.9032 5.65441 18.9024 3.3759 16.6239C1.09738 14.3454 1.0967 10.6517 3.37389 8.37226L3.99005 7.74797C4.31335 7.4204 4.84097 7.41693 5.16854 7.74022ZM12.2558 7.74408C12.5812 8.06952 12.5812 8.59717 12.2558 8.92259L8.92242 12.2559C8.597 12.5813 8.06935 12.5813 7.74391 12.2559C7.41848 11.9305 7.41848 11.4028 7.74391 11.0774L11.0773 7.74408C11.4027 7.41865 11.9303 7.41865 12.2558 7.74408Z" fill="#C0C0C0"/>
</svg>
