<svg width="800" height="800" viewBox="0 0 800 800" fill="none" xmlns="http://www.w3.org/2000/svg">
<g clip-path="url(#clip0_253_2)">
<path d="M640 0H160C71.6344 0 0 71.6344 0 160V640C0 728.366 71.6344 800 160 800H640C728.366 800 800 728.366 800 640V160C800 71.6344 728.366 0 640 0Z" fill="#1A1A1A"/>
<path d="M160 546.667C160 640 240 640 400 640C560 640 640 640 640 546.667C640 386.667 573.333 160 506.667 160C426.667 160 413.333 480 360 480C306.667 480 306.667 266.667 240 266.667C186.667 266.667 160 466.667 160 546.667Z" fill="white"/>
</g>
<defs>
<clipPath id="clip0_253_2">
<rect width="800" height="800" fill="white"/>
</clipPath>
</defs>
</svg>
