<svg width="56" height="56" viewBox="0 0 56 56" fill="none" xmlns="http://www.w3.org/2000/svg">
<mask id="mask0_515_5" style="mask-type:luminance" maskUnits="userSpaceOnUse" x="4" y="4" width="48" height="48">
<path d="M52 4H4V52H52V4Z" fill="white"/>
</mask>
<g mask="url(#mask0_515_5)">
<path d="M24.8027 5.18215C26.6309 3.59606 29.2991 3.59606 31.1275 5.18215L51.9302 23.2278V46.8474C51.9302 49.6506 49.7293 51.9229 47.0141 51.9229H8.9159C6.20092 51.9229 4 49.6506 4 46.8474V23.2278L24.8027 5.18215Z" fill="#1D1D1B"/>
<path d="M20.4663 25.6654C17.8452 25.6654 15.7202 27.8592 15.7202 30.5653V34.6331C15.7202 37.3392 17.8451 39.5331 20.4662 39.5331C23.0873 39.5331 25.2122 37.3392 25.2122 34.6331V30.5653C25.2122 27.8592 23.0874 25.6654 20.4663 25.6654Z" fill="white"/>
<path d="M20.4657 27.3295C22.4577 27.3295 24.0727 28.9968 24.0727 31.0534V34.1449C24.0727 36.2016 22.4577 37.8688 20.4657 37.8688C18.4737 37.8688 16.8589 36.2016 16.8589 34.1449V31.7119C17.4303 31.6133 17.9796 31.3414 18.4264 30.893C19.3041 30.0125 19.5375 28.7054 19.1183 27.598C19.5346 27.4249 19.9894 27.3295 20.4657 27.3295Z" fill="#1D1D1B"/>
<path d="M35.5102 25.6654C32.889 25.6654 30.7642 27.8592 30.7642 30.5653V34.6331C30.7642 37.3392 32.889 39.5331 35.5102 39.5331C38.1313 39.5331 40.2561 37.3392 40.2561 34.6331V30.5653C40.2561 27.8592 38.1313 25.6654 35.5102 25.6654Z" fill="white"/>
<path d="M35.5102 27.3295C37.5021 27.3295 39.1168 28.9967 39.1171 31.0533V34.1448C39.1171 36.2013 37.5021 37.8685 35.5102 37.8685C33.5181 37.8685 31.9033 36.2013 31.9033 34.1448V31.7118C32.4746 31.6133 33.0238 31.3413 33.4706 30.893C34.3482 30.0125 34.5815 28.7057 34.1624 27.5984C34.5788 27.4252 35.0338 27.3295 35.5102 27.3295Z" fill="#1D1D1B"/>
</g>
</svg>
